<svg width="24" height="24" viewBox="0 0 24 24" fill="none" xmlns="http://www.w3.org/2000/svg">
<path d="M15.9092 12.1235L24.0002 17.2385V6.79248L15.9092 12.1235Z" fill="#029F59"/>
<path d="M0 6.79248V17.2385L8.091 12.1235L0 6.79248Z" fill="#029F59"/>
<path d="M22.4999 3.75049H1.49992C0.751421 3.75049 0.157422 4.30849 0.0449219 5.02699L11.9999 12.9035L23.9549 5.02699C23.8424 4.30849 23.2484 3.75049 22.4999 3.75049Z" fill="#029F59"/>
<path d="M14.5349 13.0296L12.4124 14.4276C12.2864 14.5101 12.1439 14.5506 11.9999 14.5506C11.8559 14.5506 11.7134 14.5101 11.5874 14.4276L9.46486 13.0281L0.0478516 18.9846C0.163352 19.6971 0.754352 20.2506 1.49985 20.2506H22.4999C23.2454 20.2506 23.8364 19.6971 23.9519 18.9846L14.5349 13.0296Z" fill="#029F59"/>
</svg>
