<svg width="18" height="24" viewBox="0 0 18 24" fill="none" xmlns="http://www.w3.org/2000/svg">
<path d="M8.99989 0.000610352C4.12832 0.000610352 0.164551 3.96438 0.164551 8.83645C0.164551 10.1073 0.424659 11.3206 0.937262 12.4431C3.14634 17.2771 7.38177 22.3808 8.62754 23.8297C8.72087 23.938 8.85694 24.0004 9.00014 24.0004C9.14333 24.0004 9.27941 23.938 9.37274 23.8297C10.618 22.381 14.8534 17.2776 17.0633 12.4431C17.5761 11.3206 17.836 10.1073 17.836 8.83645C17.8355 3.96438 13.8717 0.000610352 8.99989 0.000610352ZM8.99989 13.4258C6.4693 13.4258 4.41029 11.3668 4.41029 8.8362C4.41029 6.30536 6.4693 4.24635 8.99989 4.24635C11.5305 4.24635 13.5895 6.30536 13.5895 8.8362C13.5897 11.3668 11.5307 13.4258 8.99989 13.4258Z" fill="#029F59"/>
</svg>
